# xmcd
#
# Track frame offsets:
#	150
#	17512
#	34842
#	52180
#	71807
#	97052
#
# Disc length: 1491 seconds
# Revision: 0
# Processed by: cddbd v1.5.2PL0 Copyright (c) Steve Scherf et al.
# Submitted via: dBpowerAMP V12.0
#
DISCID=5105d106
DTITLE=Oliver Frank - Liza Maria
DYEAR=1993
DGENRE=Discofox
TTITLE0=Liza Maria
TTITLE1=Liza Maria (Soft Mix)
TTITLE2=Liza Maria (Dance Mix)
TTITLE3=Liza Maria (Extended Version)
TTITLE4=Liza Maria (Maxi Dance Mix)
TTITLE5=Leben mit dir
EXTD=
EXTT0=
EXTT1=
EXTT2=
EXTT3=
EXTT4=
EXTT5=
PLAYORDER=
